<?xml version="1.0" standalone="no"?>
<!DOCTYPE svg PUBLIC "-//W3C//DTD SVG 20010904//EN"
 "http://www.w3.org/TR/2001/REC-SVG-20010904/DTD/svg10.dtd">
<svg version="1.0" xmlns="http://www.w3.org/2000/svg"
 width="2048.000000pt" height="2048.000000pt" viewBox="0 0 2048.000000 2048.000000"
 preserveAspectRatio="xMidYMid meet">

<g transform="translate(0.000000,2048.000000) scale(0.100000,-0.100000)"
fill="#000000" stroke="none">
<path d="M15990 16740 c-58 -21 -708 -206 -1305 -372 -60 -17 -128 -36 -150
-44 -22 -8 -89 -27 -150 -43 -60 -17 -175 -49 -255 -71 -80 -22 -239 -67 -355
-99 -115 -32 -307 -86 -425 -120 -118 -34 -271 -78 -340 -97 -463 -132 -728
-208 -815 -234 -55 -17 -165 -49 -245 -71 -80 -22 -165 -47 -190 -56 -48 -16
-101 -32 -275 -83 -60 -17 -207 -62 -325 -100 -118 -38 -255 -80 -305 -94
-173 -49 -813 -264 -1160 -391 -55 -20 -138 -50 -185 -67 -47 -16 -93 -34
-103 -39 -10 -5 -91 -39 -180 -75 -464 -188 -689 -324 -927 -565 -174 -175
-289 -339 -419 -599 -132 -264 -238 -577 -285 -840 -87 -487 -89 -964 -6
-1425 16 -88 38 -200 49 -248 12 -48 21 -90 21 -92 0 -8 -90 -51 -220 -105
-69 -28 -181 -77 -250 -107 -69 -30 -161 -71 -205 -90 -44 -20 -116 -52 -160
-73 -44 -20 -215 -95 -380 -165 -165 -71 -327 -144 -360 -163 -47 -27 -203
-177 -696 -671 -350 -350 -648 -654 -663 -676 -57 -89 -54 -222 6 -317 16 -26
883 -898 1926 -1939 1465 -1461 1907 -1896 1941 -1912 56 -25 146 -33 208 -18
28 7 72 30 104 54 54 40 1124 1113 1245 1248 94 104 50 4 586 1344 99 248 182
452 184 454 2 2 99 -4 216 -15 152 -13 301 -19 518 -19 444 0 687 28 1050 121
546 140 1014 391 1342 718 211 210 397 510 533 856 80 204 306 912 371 1160
14 52 38 138 54 190 53 173 211 751 280 1025 164 646 191 754 249 995 34 140
67 275 72 300 5 25 34 142 63 260 29 118 68 278 86 355 78 335 101 432 110
465 5 19 25 107 44 195 19 88 51 225 70 305 19 80 58 244 87 365 28 121 59
254 69 295 10 41 38 170 64 285 26 116 76 331 113 479 59 242 65 276 61 345
-6 90 -27 138 -90 197 -63 61 -118 85 -202 90 -39 2 -82 0 -96 -6z m-898 -876
c3 -3 -22 -33 -56 -67 -80 -80 -684 -703 -801 -826 -50 -52 -112 -118 -140
-146 -27 -28 -131 -136 -230 -241 -99 -104 -249 -261 -335 -349 -289 -297
-485 -499 -701 -720 -119 -121 -363 -372 -543 -557 -237 -243 -333 -335 -345
-331 -9 3 -39 16 -67 29 -130 59 -259 84 -439 85 -137 0 -264 -20 -362 -56
-378 -142 -646 -451 -717 -825 -18 -95 -21 -304 -5 -400 31 -194 139 -403 291
-561 229 -238 520 -353 853 -335 166 8 302 43 440 113 291 147 495 405 577
728 30 120 32 358 4 480 -19 85 -69 216 -106 278 l-23 38 94 97 c52 54 179
187 284 297 191 201 349 365 611 635 78 80 159 163 179 185 21 22 106 110 189
195 214 219 753 775 931 959 83 86 220 228 305 316 86 88 194 201 242 250 213
222 324 335 329 335 3 0 -3 -37 -13 -82 -10 -46 -25 -110 -32 -143 -61 -270
-88 -387 -100 -430 -8 -27 -19 -75 -26 -105 -6 -30 -29 -127 -50 -215 -21 -88
-48 -203 -60 -255 -12 -52 -34 -149 -50 -215 -15 -66 -35 -151 -44 -190 -8
-38 -27 -119 -41 -180 -14 -60 -30 -130 -35 -155 -6 -25 -29 -119 -51 -210
-23 -91 -59 -237 -81 -325 -85 -346 -259 -1034 -277 -1100 -10 -38 -35 -133
-56 -210 -193 -734 -314 -1146 -515 -1755 -99 -300 -242 -597 -352 -735 -183
-230 -395 -396 -683 -535 -550 -267 -1246 -357 -2000 -259 -336 43 -350 44
-413 24 -65 -20 -105 -45 -145 -89 -41 -45 -56 -79 -166 -352 -55 -137 -143
-355 -197 -484 -53 -129 -118 -291 -145 -360 -74 -186 -131 -320 -138 -320 -3
0 -701 695 -1550 1544 l-1544 1544 49 22 c27 12 177 78 334 147 157 68 332
146 390 173 58 26 179 80 270 120 353 153 379 169 431 272 39 77 37 147 -15
373 -51 229 -90 441 -108 600 -16 144 -16 538 0 690 24 223 90 529 147 685
157 429 380 744 659 928 146 96 490 258 751 353 44 16 89 34 100 39 46 21 933
321 1080 365 61 18 169 51 240 74 204 66 434 135 765 231 314 91 664 193 805
235 44 13 148 43 230 65 151 42 478 135 810 231 99 28 297 84 440 124 335 94
551 155 750 215 182 55 170 52 177 44z m-3447 -3759 c254 -121 364 -418 244
-662 -53 -110 -174 -222 -289 -267 -69 -28 -209 -32 -296 -8 -154 41 -296 178
-345 332 -26 83 -28 213 -4 296 45 158 182 293 345 340 28 9 86 12 155 11 104
-3 114 -5 190 -42z m-3722 -4206 l1659 -1661 -84 -81 c-46 -45 -236 -236 -422
-425 -187 -188 -343 -341 -348 -340 -15 5 -3318 3312 -3316 3319 6 17 831 849
842 849 6 0 757 -747 1669 -1661z"/>
<path d="M5163 7342 c-102 -37 -126 -66 -298 -369 -230 -406 -233 -411 -343
-618 -353 -666 -465 -1055 -408 -1415 18 -113 80 -308 127 -402 142 -281 374
-506 676 -657 135 -67 226 -97 375 -122 106 -18 151 -20 323 -16 183 4 210 7
320 36 133 34 325 123 455 209 130 87 288 247 387 393 48 69 118 210 151 303
55 152 77 281 76 466 0 240 -34 388 -140 605 -61 125 -160 279 -266 412 -178
222 -516 567 -833 848 -92 83 -202 180 -243 217 -42 37 -98 79 -125 94 -66 36
-160 42 -234 16z m266 -819 c155 -141 482 -466 590 -589 205 -233 342 -450
377 -597 25 -109 22 -291 -6 -387 -44 -148 -114 -265 -221 -371 -180 -178
-390 -258 -644 -246 -150 7 -263 35 -375 93 -171 89 -294 213 -375 379 -56
114 -77 202 -76 327 1 158 35 279 162 578 74 174 454 889 473 890 5 0 47 -35
95 -77z"/>
</g>
</svg>
